HIERARCHY
ROOT Hips
{
	OFFSET -0.001795 -0.223333 0.028219
	CHANNELS 6 Xposition Yposition Zposition Zrotation Yrotation Xrotation 
	JOINT LeftUpLeg
	{
		OFFSET 0.069520 -0.091406 -0.006815
		CHANNELS 3 Zrotation Yrotation Xrotation
		JOINT LeftLeg
		{
			OFFSET 0.034277 -0.375199 -0.004496
			CHANNELS 3 Zrotation Yrotation Xrotation
			JOINT LeftFoot
			{
				OFFSET -0.013596 -0.397961 -0.043693
				CHANNELS 3 Zrotation Yrotation Xrotation
				JOINT LeftToe
				{
					OFFSET 0.026358 -0.055791 0.119288
					CHANNELS 3 Zrotation Yrotation Xrotation
					End Site
					{
						OFFSET 0.000000 0.000000 0.000000
					}
				}
			}
		}
	}
	JOINT RightUpLeg
	{
		OFFSET -0.067670 -0.090522 -0.004320
		CHANNELS 3 Zrotation Yrotation Xrotation
		JOINT RightLeg
		{
			OFFSET -0.038290 -0.382569 -0.008850
			CHANNELS 3 Zrotation Yrotation Xrotation
			JOINT RightFoot
			{
				OFFSET 0.015774 -0.398415 -0.042312
				CHANNELS 3 Zrotation Yrotation Xrotation
				JOINT RightToe
				{
					OFFSET -0.025372 -0.048144 0.123348
					CHANNELS 3 Zrotation Yrotation Xrotation
					End Site
					{
						OFFSET 0.000000 0.000000 0.000000
					}
				}
			}
		}
	}
	JOINT Spine
	{
		OFFSET -0.002533 0.108963 -0.026696
		CHANNELS 3 Zrotation Yrotation Xrotation
		JOINT Spine1
		{
			OFFSET 0.005487 0.135180 0.001092
			CHANNELS 3 Zrotation Yrotation Xrotation
			JOINT Spine2
			{
				OFFSET 0.001457 0.052922 0.025425
				CHANNELS 3 Zrotation Yrotation Xrotation
				JOINT Neck
				{
					OFFSET -0.002778 0.213870 -0.042857
					CHANNELS 3 Zrotation Yrotation Xrotation
					JOINT Head
					{
						OFFSET 0.005152 0.064970 0.051349
						CHANNELS 3 Zrotation Yrotation Xrotation
						End Site
						{
							OFFSET 0.000000 0.000000 0.000000
						}
					}
				}
				JOINT LeftShoulder
				{
					OFFSET 0.078845 0.121749 -0.034090
					CHANNELS 3 Zrotation Yrotation Xrotation
					JOINT LeftArm
					{
						OFFSET 0.090977 0.030469 -0.008868
						CHANNELS 3 Zrotation Yrotation Xrotation
						JOINT LeftForeArm
						{
							OFFSET 0.259612 -0.012772 -0.027456
							CHANNELS 3 Zrotation Yrotation Xrotation
							JOINT LeftHand
							{
								OFFSET 0.249234 0.008986 -0.001171
								CHANNELS 3 Zrotation Yrotation Xrotation
								End Site
								{
									OFFSET 0.000000 0.000000 0.000000
								}
							}
						}
					}
				}
				JOINT RightShoulder
				{
					OFFSET -0.081759 0.118833 -0.038615
					CHANNELS 3 Zrotation Yrotation Xrotation
					JOINT RightArm
					{
						OFFSET -0.096012 0.032551 -0.009143
						CHANNELS 3 Zrotation Yrotation Xrotation
						JOINT RightForeArm
						{
							OFFSET -0.253742 -0.013329 -0.021401
							CHANNELS 3 Zrotation Yrotation Xrotation
							JOINT RightHand
							{
								OFFSET -0.255298 0.007772 -0.005559
								CHANNELS 3 Zrotation Yrotation Xrotation
								End Site
								{
									OFFSET 0.000000 0.000000 0.000000
								}
							}
						}
					}
				}
			}
		}
	}
}
MOTION
Frames: 13
Frame Time: 0.050000
0.000000 0.948213 0.000000 -1.420844 -5.245357 4.152718 6.548796 0.015994 1.985330 -1.031884 0.182620 -2.488174 5.808056 13.738127 14.719937 0.000000 0.000000 0.000000 -2.164510 0.076070 0.191657 0.775014 -0.121458 -1.476018 -0.855819 -7.449999 12.492836 0.000000 0.000000 0.000000 0.671467 0.124782 -2.729882 2.353892 -0.030387 -24.074250 -3.579016 3.431348 26.075425 7.492782 -2.461156 -27.163329 0.000000 0.000000 0.000000 -19.856258 -3.122679 0.605488 -57.817516 -8.276200 -5.204445 -6.296514 -20.754266 2.185134 0.000000 0.000000 0.000000 -8.100230 7.784485 2.392697 14.392729 44.600653 0.948053 -108.295574 36.978893 -43.825109 0.000000 0.000000 0.000000 
-0.000760 0.947164 0.000106 -2.049238 -5.873439 5.064119 7.428522 0.009453 2.483519 -1.478534 0.277645 -4.708435 6.113617 14.152452 14.967366 0.000000 0.000000 0.000000 -1.622516 0.140477 -0.841126 0.960651 -0.132940 -1.421478 -0.593392 -6.990596 12.308855 0.000000 0.000000 0.000000 1.283152 0.193509 -3.874863 2.800411 -0.153665 -23.944722 -3.881238 3.836672 25.743089 8.171692 -2.760603 -27.587334 0.000000 0.000000 0.000000 -19.772659 -2.426702 0.206345 -57.819287 -7.566935 -5.510177 -7.996107 -20.776537 2.497340 0.000000 0.000000 0.000000 -10.883083 8.065733 2.344852 11.287230 46.099471 0.101822 -107.592323 33.248696 -38.792542 0.000000 0.000000 0.000000 
-0.000942 0.947173 0.000053 -1.112211 -4.753365 4.647744 6.646846 -0.013582 1.722214 -1.553639 0.246377 -3.182168 5.545918 13.368402 14.564698 0.000000 0.000000 0.000000 -2.354886 0.113101 -0.168514 0.752926 -0.127475 -1.700470 -1.194370 -7.904938 12.169955 0.000000 0.000000 0.000000 1.096615 0.133569 -2.916373 0.948645 0.403094 -26.306874 -3.586177 2.667719 27.689894 8.518608 -3.271205 -26.737613 0.000000 0.000000 0.000000 -20.225778 -1.854542 0.093898 -56.332066 -7.114199 -5.878484 -8.927105 -21.464667 2.804439 0.000000 0.000000 0.000000 -12.335163 8.237073 2.323971 5.021984 45.435506 -2.075249 -105.693955 28.330660 -32.426970 0.000000 0.000000 0.000000 
-0.001066 0.947035 0.000495 -1.072479 -4.428906 5.084824 6.586161 -0.035803 1.413652 -1.430371 0.242431 -3.550073 5.402786 13.177251 14.574730 0.000000 0.000000 0.000000 -2.179152 0.152889 -0.761081 0.460704 -0.093064 -1.374427 -1.409696 -8.248020 12.104362 0.000000 0.000000 0.000000 1.426875 0.165995 -3.493629 0.765826 0.472696 -26.910139 -3.940760 3.082560 28.102446 9.292968 -3.651532 -26.569536 0.000000 0.000000 0.000000 -19.934538 -1.327565 -0.339686 -56.608598 -6.856455 -6.017746 -9.672403 -21.602789 2.959683 0.000000 0.000000 0.000000 -15.590884 7.611818 1.941857 1.501111 44.585077 -2.975261 -103.744519 25.037315 -27.406284 0.000000 0.000000 0.000000 
-0.001030 0.947738 0.001148 -0.876593 -3.762838 5.100886 6.071270 -0.043926 1.202326 -0.733098 0.177710 -3.414242 5.065408 12.739529 14.649661 0.000000 0.000000 0.000000 -2.296699 0.135237 -0.503058 0.452274 -0.103270 -1.666433 -1.670584 -8.738862 12.435328 0.000000 0.000000 0.000000 1.680229 0.155888 -3.336154 0.417428 0.559320 -27.176676 -4.319654 2.886091 28.008576 9.619687 -3.806205 -26.524916 0.000000 0.000000 0.000000 -19.320195 -0.848698 -0.643722 -56.304639 -5.890550 -6.407155 -11.567865 -22.790423 3.517408 0.000000 0.000000 0.000000 -18.352321 6.505900 1.571710 -2.068845 42.485250 -3.749267 -103.151553 23.433704 -25.439729 0.000000 0.000000 0.000000 
-0.000965 0.948549 0.001954 -0.954074 -3.196645 5.304162 5.985842 -0.059905 1.052999 -0.298423 0.148101 -3.652048 4.766665 12.364890 14.809496 0.000000 0.000000 0.000000 -2.383612 0.125947 -0.352158 0.891398 -0.154076 -2.117423 -1.822815 -9.082221 12.952360 0.000000 0.000000 0.000000 2.095645 0.155024 -3.333451 -0.237225 0.733892 -28.314988 -4.156705 2.664194 28.738111 10.087641 -4.179272 -26.038953 0.000000 0.000000 0.000000 -19.535802 -0.636984 -0.781542 -55.490072 -5.210008 -6.713940 -13.274591 -24.098546 4.116245 0.000000 0.000000 0.000000 -21.149340 5.967354 1.308118 -4.787153 39.326693 -4.039800 -101.342710 21.878244 -23.181886 0.000000 0.000000 0.000000 
-0.000856 0.949061 0.002503 -0.908839 -2.686776 5.350448 6.043501 -0.077407 0.870277 -0.365424 0.150027 -3.551878 4.490512 12.002545 14.825365 0.000000 0.000000 0.000000 -2.305012 0.133440 -0.506927 0.784538 -0.135137 -1.763489 -2.063931 -9.499212 13.119659 0.000000 0.000000 0.000000 2.279634 0.161457 -3.454631 -0.500877 0.792040 -28.329386 -4.397947 2.639751 28.559215 10.413235 -4.332304 -25.948277 0.000000 0.000000 0.000000 -19.384501 -0.051781 -1.191189 -55.201273 -4.652398 -6.896102 -13.807521 -24.733631 4.337898 0.000000 0.000000 0.000000 -23.180157 4.994632 1.034329 -7.793236 36.631535 -4.273224 -98.885123 18.574942 -18.698831 0.000000 0.000000 0.000000 
-0.000848 0.949624 0.002834 -1.121444 -2.420859 5.383986 6.250755 -0.096712 0.619950 -0.253293 0.129829 -3.216511 4.380750 11.864093 14.819671 0.000000 0.000000 0.000000 -2.086885 0.130810 -0.583165 0.878180 -0.137901 -1.592717 -2.138414 -9.664033 13.381731 0.000000 0.000000 0.000000 2.551711 0.170905 -3.587459 -0.668991 0.828860 -28.470810 -4.244326 2.934236 28.480883 10.520675 -4.404277 -25.481252 0.000000 0.000000 0.000000 -19.457006 -0.057518 -1.323664 -54.583734 -4.406517 -6.916105 -14.744486 -25.228508 4.615570 0.000000 0.000000 0.000000 -24.351258 4.117809 0.776052 -10.070718 34.891052 -4.379170 -97.522815 16.395539 -15.852660 0.000000 0.000000 0.000000 
-0.000885 0.950040 0.003051 -1.213855 -2.092623 5.461959 6.456957 -0.114891 0.424663 -0.346469 0.134316 -3.114795 4.211879 11.647767 14.838412 0.000000 0.000000 0.000000 -2.079234 0.141511 -0.724797 1.135162 -0.154653 -1.400229 -2.261349 -9.889709 13.581766 0.000000 0.000000 0.000000 2.447252 0.174389 -3.673889 -0.675753 0.831508 -28.599739 -4.175858 3.046584 28.402435 10.518912 -4.379154 -25.306448 0.000000 0.000000 0.000000 -19.553631 -0.021056 -1.454309 -53.989681 -4.506219 -6.772746 -15.554267 -25.738832 4.875837 0.000000 0.000000 0.000000 -25.051196 3.202111 0.572361 -11.819392 33.593699 -4.430541 -96.527811 13.700110 -12.673539 0.000000 0.000000 0.000000 
-0.000946 0.950678 0.003224 -1.402084 -1.963221 5.571450 6.638227 -0.125223 0.347757 -0.265054 0.130341 -3.208219 4.135995 11.568347 14.986763 0.000000 0.000000 0.000000 -1.786502 0.139117 -0.815119 1.022085 -0.145410 -1.410438 -2.270363 -9.958551 13.872114 0.000000 0.000000 0.000000 2.531591 0.179810 -3.761117 -0.678796 0.836309 -28.794602 -3.958154 3.313730 28.364536 10.238661 -4.183681 -25.139133 0.000000 0.000000 0.000000 -20.038713 0.312137 -1.790692 -53.139911 -4.498520 -6.652348 -16.383498 -26.097438 5.117948 0.000000 0.000000 0.000000 -25.471893 2.687381 0.421024 -12.842789 32.654499 -4.380078 -98.558979 11.713788 -10.827109 0.000000 0.000000 0.000000 
-0.000914 0.951045 0.003328 -1.376643 -1.573513 5.725911 6.738866 -0.147408 0.012889 -0.391581 0.136009 -3.059655 3.935354 11.310691 15.000018 0.000000 0.000000 0.000000 -1.732383 0.148105 -0.944152 0.979065 -0.142008 -1.397767 -2.442343 -10.258099 14.067314 0.000000 0.000000 0.000000 2.332536 0.188638 -3.961195 -0.690339 0.838822 -28.748407 -3.956637 3.484052 28.377388 9.982409 -3.981751 -24.996300 0.000000 0.000000 0.000000 -20.086108 0.480243 -2.016568 -52.581260 -4.756119 -6.445781 -16.945908 -26.661281 5.338785 0.000000 0.000000 0.000000 -25.798478 2.091469 0.238627 -13.332598 31.946548 -4.253013 -101.763087 9.076029 -8.132107 0.000000 0.000000 0.000000 
-0.000833 0.951490 0.003379 -1.477149 -1.617268 5.827232 6.835406 -0.151190 -0.014986 -0.391839 0.139769 -3.181450 3.941592 11.337152 15.147147 0.000000 0.000000 0.000000 -1.733699 0.155990 -1.030589 1.153453 -0.158838 -1.452810 -2.376122 -10.189816 14.264281 0.000000 0.000000 0.000000 2.388274 0.184685 -3.899346 -0.663836 0.838138 -28.972870 -3.758845 3.735265 28.318510 9.943389 -3.961160 -24.748792 0.000000 0.000000 0.000000 -20.422459 0.605232 -2.194722 -51.897821 -4.620546 -6.395845 -17.779132 -27.332776 5.668624 0.000000 0.000000 0.000000 -26.166646 1.737934 0.138308 -13.981675 31.306193 -4.193015 -105.422188 6.801704 -5.763085 0.000000 0.000000 0.000000 
-0.000629 0.951678 0.003372 -1.448695 -1.638053 5.866892 6.759481 -0.155249 -0.187421 -0.344334 0.128788 -2.955241 3.959225 11.364199 15.166269 0.000000 0.000000 0.000000 -1.664037 0.162983 -1.136502 0.946939 -0.137573 -1.351761 -2.376848 -10.202372 14.295540 0.000000 0.000000 0.000000 2.284178 0.185753 -3.930085 -0.639050 0.835753 -29.069471 -3.730101 4.040178 28.458102 9.981722 -3.940704 -24.734743 0.000000 0.000000 0.000000 -20.315778 0.599811 -2.258358 -51.806450 -4.797139 -6.303187 -17.927086 -27.341477 5.686789 0.000000 0.000000 0.000000 -26.522809 1.458818 0.022089 -14.654329 30.604853 -4.107142 -108.114924 4.016061 -2.317059 0.000000 0.000000 0.000000 
